<svg width="32" height="32" viewBox="0 0 32 32" fill="none" xmlns="http://www.w3.org/2000/svg">
  <!-- Background circle -->
  <circle cx="16" cy="16" r="15" fill="url(#gradient)" stroke="#2563eb" stroke-width="2"/>
  
  <!-- AI Brain/Circuit pattern -->
  <g fill="#ffffff" stroke="#ffffff" stroke-width="0.5">
    <!-- Central node -->
    <circle cx="16" cy="16" r="2" fill="#ffffff"/>
    
    <!-- Neural network connections -->
    <line x1="16" y1="16" x2="12" y2="10" stroke-width="1"/>
    <line x1="16" y1="16" x2="20" y2="10" stroke-width="1"/>
    <line x1="16" y1="16" x2="10" y2="16" stroke-width="1"/>
    <line x1="16" y1="16" x2="22" y2="16" stroke-width="1"/>
    <line x1="16" y1="16" x2="12" y2="22" stroke-width="1"/>
    <line x1="16" y1="16" x2="20" y2="22" stroke-width="1"/>
    
    <!-- Outer nodes -->
    <circle cx="12" cy="10" r="1.5" fill="#ffffff"/>
    <circle cx="20" cy="10" r="1.5" fill="#ffffff"/>
    <circle cx="10" cy="16" r="1.5" fill="#ffffff"/>
    <circle cx="22" cy="16" r="1.5" fill="#ffffff"/>
    <circle cx="12" cy="22" r="1.5" fill="#ffffff"/>
    <circle cx="20" cy="22" r="1.5" fill="#ffffff"/>
    
    <!-- Additional connection lines -->
    <line x1="12" y1="10" x2="10" y2="16" stroke-width="0.5" opacity="0.7"/>
    <line x1="20" y1="10" x2="22" y2="16" stroke-width="0.5" opacity="0.7"/>
    <line x1="10" y1="16" x2="12" y2="22" stroke-width="0.5" opacity="0.7"/>
    <line x1="22" y1="16" x2="20" y2="22" stroke-width="0.5" opacity="0.7"/>
  </g>
  
  <!-- Gradient definition -->
  <defs>
    <linearGradient id="gradient" x1="0%" y1="0%" x2="100%" y2="100%">
      <stop offset="0%" style="stop-color:#3b82f6;stop-opacity:1" />
      <stop offset="100%" style="stop-color:#1d4ed8;stop-opacity:1" />
    </linearGradient>
  </defs>
</svg>
